<svg xmlns="http://www.w3.org/2000/svg" width="27" height="36" viewBox="0 0 27 36">
  <path id="Icon_awesome-file-powerpoint" data-name="Icon awesome-file-powerpoint" d="M13.62,19.069a1.8,1.8,0,0,1,1.427.57,2.584,2.584,0,0,1-.014,3.1,1.867,1.867,0,0,1-1.484.6H11.658V19.069H13.62ZM26.508,7.383,19.617.492A1.686,1.686,0,0,0,18.422,0H18V9h9V8.571A1.682,1.682,0,0,0,26.508,7.383ZM15.75,9.563V0H1.688A1.683,1.683,0,0,0,0,1.688V34.313A1.683,1.683,0,0,0,1.688,36H25.313A1.683,1.683,0,0,0,27,34.313V11.25H17.438A1.692,1.692,0,0,1,15.75,9.563Zm3.727,11.616c0,6.349-6.244,5.456-7.812,5.456v4.022a.846.846,0,0,1-.844.844H8.655a.846.846,0,0,1-.844-.844V16.608a.846.846,0,0,1,.844-.844h5.7C17.48,15.764,19.477,18.07,19.477,21.178Z"/>
</svg>
